<svg xmlns="http://www.w3.org/2000/svg" style="display: none;">
    <symbol id="icon_close" viewBox="0 0 12 12">
      <title>469AB5E3-200E-4B06-B79D-5C46D43407DD</title><path d="M.43 11.576c.294.295.663.424 1.05.424.39 0 .758-.148 1.053-.424l3.47-3.488 3.47 3.47c.294.294.663.424 1.05.424.388 0 .757-.148 1.053-.425.572-.572.572-1.513 0-2.085l-3.488-3.47 3.47-3.47c.57-.57.57-1.512 0-2.084-.573-.573-1.514-.573-2.086 0l-3.47 3.47-3.47-3.49C1.963-.14 1.02-.14.45.43c-.573.573-.573 1.514 0 2.086l3.47 3.488-3.49 3.47c-.57.59-.57 1.513 0 2.104z" fill-rule="nonzero" fill="#000"/>
    </symbol>
    <symbol id="icon_delete-item" viewBox="0 0 19 19">
      <defs><path id="a" d="M1494 153.99l1 1-6.5 6.5 6.5 6.52-1 1-6.5-6.51-6.5 6.5-1-1 6.5-6.5-6.5-6.5 1-1.01 6.5 6.5z"/></defs><use fill="#e9e9e9" xlink:href="#a" transform="translate(-1478 -152)"/>
    </symbol>
    <symbol id="icon_icon-gamburger" viewBox="0 0 22 15">
      <defs><path id="a" d="M281 28h19v2h-19zm0-5h19v2h-19zm0 10h19v2h-19z"/></defs><use fill="#909090" xlink:href="#a" transform="translate(-279 -21)"/>
    </symbol>
    <symbol id="icon_instagram" viewBox="0 0 512 512">
      <path d="M505 257c0 34.8-.7 69.7.2 104.5 1.5 61.6-37.2 109.2-86.5 130.4-19.8 8.5-40.6 13-62.1 13-67.3.1-134.7 1-202-.3-50.7-1-92.4-22.2-122.3-64-15.7-22-23.2-47-23.2-74.1v-215c0-58.5 28.5-99.4 79.1-126C110.2 14 134.1 9.1 159 9c65.3 0 130.7-.4 196 .2 50.7.4 93 19.8 124.2 60.6 17.4 22.8 25.8 49 25.8 77.8V257zm-459 0v110c0 16.4 3.8 31.8 12.3 45.7 22.3 36.5 56 54.3 97.8 55 67.1 1 134.3.4 201.5.2 16.5 0 32.5-3.4 47.4-10.5 40.6-19.4 63.3-50.3 63.1-96.7-.4-71-.1-142-.1-213 0-20.1-5.7-38.5-17.6-54.7-23-31.1-54.8-46.4-92.8-46.8-67-.8-134-.3-201-.2-14.3 0-28.1 2.9-41.5 7.9-36.8 13.7-71 48.4-69.4 99.5 1.2 34.6.3 69.1.3 103.6z"/><path d="M257.6 363c-64.5 0-116.5-51.4-116.6-115.4-.1-63 52.3-114.6 116.4-114.6 64.3-.1 116.5 51.4 116.6 114.9 0 63.4-52.1 115-116.4 115.1zm0-37c43.9 0 79.5-35.1 79.4-78.3-.1-42.8-35.7-77.8-79.4-77.8-43.9 0-79.7 34.9-79.7 78 .1 43.2 35.8 78.2 79.7 78.1zM387.5 98c13.5 0 24.5 11.5 24.5 25.6-.1 14.1-11.2 25.5-24.7 25.4-13.3-.1-24.2-11.5-24.2-25.3C363 109.6 374 98 387.5 98z"/>
    </symbol>
    <symbol id="icon_line" viewBox="0 0 159 85">
      <title>2C413819-3E42-4EF3-9C77-4F042CC75AD5</title><defs><filter x="-7.8%" y="-200%" width="115.6%" height="500%" filterUnits="objectBoundingBox" id="a"><feGaussianBlur stdDeviation="4" in="SourceGraphic"/></filter></defs><rect filter="url(#a)" transform="rotate(24 819.752 -1322.093)" x="621.779" y="222.49" width="154" height="6" rx="3" fill="#313131" fill-rule="evenodd"/>
    </symbol>
    <symbol id="icon_marker" viewBox="0 0 51 69">
      <title>F32F82CB-8AC6-452E-8C90-6AFB1CCC1DE2</title><path d="M25.16 0C11.264 0 0 11.265 0 25.16s25.16 43.07 25.16 43.07 25.16-29.176 25.16-43.07C50.32 11.263 39.056 0 25.16 0zm0 30.282c-3.59 0-6.5-2.91-6.5-6.5s2.91-6.5 6.5-6.5 6.5 2.91 6.5 6.5-2.91 6.5-6.5 6.5z" fill-rule="nonzero" fill="#1567D0"/>
    </symbol>
    <symbol id="icon_rectangle" viewBox="0 0 72 72">
      <title>F430CA5C-C40C-4F84-BFD8-F5289C035DEF</title><defs><filter x="-24%" y="-24%" width="148%" height="148%" filterUnits="objectBoundingBox" id="a"><feGaussianBlur stdDeviation="4" in="SourceGraphic"/></filter></defs><rect filter="url(#a)" transform="rotate(5 -4386.564 -9290.2)" x="809.596" y="362.475" width="45" height="45" rx="14" stroke="#465F7F" stroke-width="5" fill="none" fill-rule="evenodd"/>
    </symbol>
    <symbol id="icon_triangle" viewBox="0 0 71 70">
      <title>6A15DC47-8DE5-418A-B557-7361486E47CB</title><defs><filter x="-27.4%" y="-38.2%" width="154.7%" height="176.3%" filterUnits="objectBoundingBox" id="a"><feGaussianBlur stdDeviation="4" in="SourceGraphic"/></filter></defs><path filter="url(#a)" transform="rotate(124 482.005 376.08)" d="M453.32 905.58l26.5 38h-53z" stroke-width="5" stroke="#8BB0A1" fill="none" fill-rule="evenodd"/>
    </symbol>
    <symbol id="icon_triangle1" viewBox="0 0 88 99">
      <title>C5C503E9-0FE0-4180-9FEC-907800F9A66C</title><path d="M25.43 49.037L60.853 25.15l-.855 48.994z" stroke-width="5" stroke="#8BB0A1" fill="none" fill-rule="evenodd"/>
    </symbol></svg>